<svg xmlns="http://www.w3.org/2000/svg" xmlns:xlink="http://www.w3.org/1999/xlink" version="1.1" x="0px" y="0px" viewBox="0 0 90 157.445" style="enable-background:new 0 0 90 125.956;" xml:space="preserve"><g><path d="M75.001,44.525c-1.433-0.471-2.729-0.672-3.771-0.834c-1.646-0.256-2.452-0.408-2.779-1.058   c-0.331-0.656-0.05-1.335,0.617-2.81c0.646-1.429,1.531-3.385,1.86-6.192c0.19-1.614,0.634-5.393-1.303-8.966   c-1.532-2.825-3.955-4.491-6.1-5.468c5.264-0.897,8.106-2.424,8.575-4.61c0.603-2.808-2.611-5.413-7.479-9.359   c-3.861-3.13-8.869-6.493-10.807-4.751c-0.809,0.728-0.603,1.705-0.438,2.49c0.112,0.534,0.229,1.086,0.124,1.662   c-0.614,3.352-8.657,5.243-14.653,6.374c-7.255,1.369-14.799,2.167-22.424,2.375c-0.491,0.013-0.9,0.382-0.964,0.869   c-0.064,0.487,0.236,0.949,0.707,1.089c10.78,3.202,21.652,4.826,32.314,4.826c0.02,0,0.041,0,0.061,0   c4.266-0.002,7.921-0.155,11.016-0.451c1.091,2.981,1.453,5.971,1.066,8.889C59.509,37,52.337,43.965,46.911,44.35   c-0.368,0.026-0.668,0.021-0.984,0.017c-0.563-0.007-1.204-0.017-2.264,0.116c-2.168,0.272-3.787,0.75-4.968,1.099   c-1.623,0.479-2.187,0.606-2.645,0.277c-0.335-0.24-0.517-2.263-0.773-6.425c-0.3-4.875,0.021-6.383,0.305-7.713   c0.057-0.265,0.111-0.521,0.16-0.792c0.18-0.997,0.753-1.794,1.532-2.131c0.946-0.411,1.956-0.334,2.771,0.205   c0.78,0.519,1.24,1.375,1.23,2.292c-0.058,5.361,1.688,9.323,4.556,10.34c1.948,0.687,4.396,0.076,5.821-1.458   c1.746-1.88,1.918-6.028,0.478-8.934c0.817-1.005,1.512-2.105,2.07-3.279c0.576-1.212,1.002-2.498,1.266-3.822   c0.062-0.307-0.025-0.625-0.233-0.859c-0.208-0.234-0.509-0.359-0.826-0.333c-0.997,0.079-2.505,0.377-4.027,1.351   c-0.716,0.459-1.368,1.028-1.926,1.678c-1.697-1.674-4.916-4.102-9.392-4.227c-5.508-0.166-10.732,3.285-13.383,8.701   c-0.463-0.479-0.962-0.92-1.491-1.321c-1.835-1.391-4.056-2.286-6.42-2.588c-0.365-0.044-0.733,0.115-0.946,0.419   c-0.213,0.305-0.239,0.703-0.068,1.033c1.614,3.114,3.208,6.323,4.739,9.539c3.017,6.335,4.5,9.946,3.705,10.885   c-0.164,0.194-0.328,0.226-1.249,0.244c-0.967,0.018-2.291,0.043-4.226,0.644c-1.881,0.583-3.137,1.338-4.054,1.89   c-0.428,0.258-0.961,0.578-1.079,0.602c-0.128-0.166-0.15-0.979-0.167-1.631c-0.032-1.19-0.076-2.819-0.561-4.916   c-0.296-1.282-0.716-2.547-1.246-3.763c-0.196-0.448-0.686-0.688-1.161-0.57l-4.754,1.196c-0.289,0.073-0.531,0.271-0.659,0.541   s-0.129,0.583-0.002,0.853c0.656,1.403,1.024,2.886,1.096,4.407c0.122,2.62-0.68,4.523-1.111,5.546   c-1.418,3.366-3.821,5.523-5.588,6.741c-0.396,0.272-0.542,0.788-0.347,1.227l4.754,10.765c0.148,0.336,0.469,0.564,0.835,0.593   c0.372,0.027,0.72-0.145,0.919-0.453c2.298-3.548,5.034-6.694,8.132-9.354c7.393-6.346,17.866-11.177,22.597-8.279   c1.28,0.784,2.031,2.036,2.04,2.05c1.454,2.452,0.709,5.423,0.133,6.979c-2.172,0.398-4.374,0.764-6.552,1.09   c-3.133,0.469-6.316,0.869-9.462,1.19c-0.306,0.031-0.58,0.201-0.744,0.461s-0.199,0.581-0.096,0.87   c1.198,3.352,2.98,5.56,5.299,6.562c2.468,1.068,4.787,0.482,6.479,0.054c0.482-0.122,1.116-0.282,1.429-0.288   c-0.014,0.399-0.379,1.847-3.708,6.03c-0.799-0.229-1.613-0.415-2.485-0.529c-3.237-0.421-6.597-0.002-9.984,1.25   c-0.387,0.143-0.646,0.508-0.653,0.92c-0.007,0.412,0.239,0.787,0.621,0.943c2.546,1.044,5.06,2.22,7.489,3.503   c-0.265,0.32-0.518,0.629-0.756,0.923c-2.408,2.974-5.243,6.466-8.441,10.391c-2.482,3.047-3.786,6.779-3.669,10.508   c0,0.002,0.003,0.099,0.003,0.101c0.112,3.076,0.979,6.128,2.506,8.829c0.168,0.297,0.477,0.488,0.818,0.506   c0.336,0.016,0.668-0.14,0.866-0.418c1.851-2.6,3.692-5.225,5.517-7.866c2.186,2.905,4.247,4.422,6.185,5.724   c7.406,4.975,18.764,7.214,24.946,2.348c1.369-1.077,2.052-2.141,2.601-2.997c0.639-0.996,0.931-1.407,1.76-1.6   c1.493-0.345,2.763,0.666,5.501,2.984c1.705,1.444,3.828,3.242,6.787,5.243c3.024,2.045,8.126,5.496,11.789,5.495   c0.928,0,1.764-0.222,2.45-0.744c1.085-0.825,1.359-2.065,1.56-2.973c0.41-1.857,0.165-3.832-0.729-5.869   c-1.41-3.213-4.087-5.764-7.541-7.183c-3.413-1.402-6.797-3.013-10.058-4.787c-1.239-0.674-2.524-1.402-3.83-2.17   c1.725-3.727,3.546-7.365,5.42-10.829l0.586-1.077c1.867-3.423,3.101-5.685,3.1-8.967c0-1.404,0-5.676-2.739-7.946   c-2.768-2.293-6.455-1.227-12.036,0.389c-1.949,0.564-4.159,1.204-6.662,1.8c-2.788,0.664-5.658,1.195-8.554,1.597   c1.186-1.935,2.37-3.87,3.518-5.786c2.56-0.916,5.201-1.667,7.854-2.233c2.692-0.575,5.446-0.971,8.186-1.177   c0.313-0.023,0.596-0.192,0.766-0.456c0.17-0.264,0.206-0.591,0.098-0.886c-0.563-1.534-1.476-2.91-2.639-3.979   c-0.471-0.433-3-2.596-6.603-2.656c-2.025-0.021-3.486,0.611-4.465,1.037c-0.275,0.12-0.631,0.274-0.841,0.332   c-0.019-0.271,0.137-0.897,0.245-1.33c0.338-1.355,0.8-3.21,0.045-5.352c-0.53-1.503-1.361-2.267-1.911-2.771   c-0.162-0.148-0.382-0.352-0.413-0.403c0.007-0.091,0.169-0.345,0.729-0.657c3.956-2.203,17.547-2.41,22.777,0.27   c1.567,0.803,1.822,1.318,1.834,1.555c0.078,1.48-3.456,3.958-11.527,6.159c-0.425,0.116-0.725,0.497-0.736,0.938   c-0.012,0.44,0.266,0.837,0.685,0.976c5.21,1.73,9.376,1.751,12.378,0.064c0.157-0.088,0.324-0.188,0.5-0.294   c0.911-0.548,1.946-1.171,3.061-0.936c0.711,0.148,1.081,0.509,1.591,1.008c0.451,0.44,0.962,0.94,1.754,1.311   c1.582,0.74,3.706,0.214,5.167-0.526c1.826-0.925,3.085-2.336,3.369-3.774C90.874,52.858,81.87,46.781,75.001,44.525z    M48.541,18.161c-0.021,0-0.04,0-0.06,0c-8.452,0-17.041-1.04-25.612-3.096c5.549-0.392,11.025-1.093,16.35-2.097   c10.879-2.052,15.587-4.364,16.25-7.979c0.176-0.963-0.003-1.813-0.134-2.434c-0.041-0.193-0.092-0.44-0.107-0.596   c0.921-0.131,4.295,1.71,8.137,4.824c3.824,3.1,7.126,5.777,6.781,7.384C69.945,15.102,67.794,18.153,48.541,18.161z    M25.404,106.676c3.564-5.199,7.064-10.457,10.466-15.725c3.141,2.012,6.476,4.428,9.826,8.087   c0.884,0.966,1.742,1.986,2.548,3.033c1.125,1.461,0.969,3.545-0.4,4.884c-4.183,4.066-11.462,2.705-14.57,2.126l-0.698-0.126   C30.651,108.612,28.3,108.194,25.404,106.676z M87.97,57.242c-0.161,0.814-1.068,1.748-2.311,2.377   c-1.289,0.652-2.661,0.853-3.415,0.499c-0.485-0.227-0.819-0.553-1.205-0.93c-0.608-0.594-1.297-1.268-2.581-1.535   c-1.885-0.392-3.458,0.553-4.5,1.18c-0.158,0.095-0.308,0.186-0.449,0.264c-1.858,1.044-4.345,1.269-7.425,0.674   c5.029-1.675,9.764-4.081,9.602-7.172c-0.083-1.58-1.604-2.556-2.919-3.23c-5.933-3.039-20.188-2.728-24.662-0.236   c-1.089,0.606-1.678,1.361-1.75,2.242c-0.081,0.997,0.548,1.574,1.053,2.038c0.475,0.436,1.014,0.931,1.377,1.963   c0.556,1.575,0.208,2.972-0.099,4.204c-0.306,1.225-0.621,2.491,0.375,3.385c0.915,0.819,2.001,0.347,2.959-0.07   c0.919-0.4,2.058-0.906,3.634-0.871c2.878,0.048,4.905,1.781,5.282,2.128c0.612,0.563,1.138,1.233,1.555,1.979   c-2.357,0.231-4.716,0.598-7.03,1.092c-2.858,0.61-5.703,1.428-8.453,2.431c-0.216,0.079-0.398,0.229-0.516,0.426   c-1.557,2.6-3.147,5.22-4.774,7.856c-0.023,0.037-0.026,0.079-0.044,0.118c-0.029,0.063-0.056,0.123-0.071,0.192   c-0.015,0.069-0.017,0.136-0.017,0.206c0,0.042-0.015,0.081-0.01,0.125c0.002,0.02,0.014,0.035,0.018,0.054   c0.012,0.069,0.038,0.132,0.064,0.198c0.023,0.058,0.042,0.115,0.075,0.166c0.031,0.049,0.074,0.089,0.114,0.133   c0.05,0.054,0.098,0.106,0.159,0.148c0.015,0.01,0.023,0.026,0.038,0.036c0.034,0.021,0.073,0.023,0.108,0.04   c0.067,0.032,0.133,0.06,0.207,0.076c0.067,0.015,0.132,0.015,0.199,0.016c0.043,0,0.083,0.015,0.127,0.01   c3.67-0.427,7.317-1.068,10.84-1.908c2.549-0.607,4.783-1.254,6.754-1.825c5.146-1.49,8.252-2.39,10.204-0.77   c2.015,1.67,2.015,5.235,2.015,6.406c0,2.773-1.014,4.633-2.855,8.009l-0.589,1.084c-2.031,3.754-4.001,7.712-5.856,11.765   c-0.212,0.464-0.042,1.014,0.397,1.275c1.594,0.951,3.166,1.848,4.672,2.667c3.324,1.809,6.774,3.45,10.254,4.88   c2.971,1.221,5.269,3.401,6.469,6.137c0.72,1.64,0.924,3.199,0.607,4.635c-0.163,0.735-0.316,1.43-0.818,1.811   c-2.255,1.714-9.267-3.03-11.908-4.817c-2.87-1.94-4.946-3.699-6.615-5.112c-2.838-2.404-4.711-3.989-7.245-3.406   c-1.654,0.384-2.334,1.443-2.992,2.467c-0.493,0.767-1.05,1.637-2.154,2.505c-5.467,4.302-15.782,2.14-22.595-2.436   c-1.221-0.82-2.495-1.731-3.818-3.074c1.864,0.658,3.465,0.943,4.773,1.176l0.681,0.123c3.414,0.637,11.406,2.131,16.371-2.697   c2.058-2.012,2.295-5.235,0.551-7.5c-0.841-1.091-1.735-2.155-2.657-3.163c-3.809-4.161-7.573-6.765-11.073-8.96   c-0.464-0.291-1.077-0.154-1.373,0.307l-0.099,0.154c-5.407,8.395-11.068,16.772-16.843,24.925   c-0.741-1.654-1.427-3.876-1.524-6.568c-0.102-3.248,1.042-6.509,3.221-9.182c3.199-3.926,6.035-7.421,8.445-10.396   c0.458-0.566,0.974-1.187,1.521-1.842c0.192-0.23,0.271-0.533,0.215-0.828c-0.056-0.294-0.24-0.547-0.503-0.691   c-2.022-1.105-4.108-2.14-6.228-3.088c2.2-0.517,4.366-0.639,6.464-0.366c0.992,0.129,1.907,0.337,2.796,0.635   c0.013,0.004,0.025,0.001,0.038,0.005c0.092,0.027,0.185,0.047,0.279,0.047c0.013,0,0.024-0.008,0.037-0.008   c0.102-0.004,0.196-0.031,0.29-0.064c0.036-0.012,0.073-0.013,0.108-0.03c0.125-0.061,0.236-0.147,0.327-0.255   c0.005-0.005,0.012-0.007,0.016-0.013c5.034-6.209,4.976-8.041,4.163-9.095c-0.803-1.042-2.122-0.71-3.519-0.357   c-1.493,0.377-3.352,0.847-5.196,0.049c-1.522-0.658-2.774-2.07-3.731-4.207c2.746-0.298,5.51-0.655,8.237-1.063   c2.384-0.356,4.795-0.761,7.166-1.202c0.331-0.061,0.608-0.285,0.739-0.595c0.678-1.612,2.031-5.743-0.061-9.269   c-0.102-0.172-1.04-1.709-2.716-2.736c-6.458-3.958-18.455,2.896-24.944,8.466c-2.794,2.398-5.306,5.174-7.484,8.269l-3.696-8.37   c1.89-1.429,4.192-3.729,5.622-7.124c0.458-1.085,1.41-3.343,1.267-6.416c-0.065-1.386-0.34-2.744-0.819-4.05l2.79-0.702   c0.333,0.86,0.604,1.742,0.81,2.633c0.44,1.9,0.479,3.352,0.51,4.518c0.04,1.488,0.072,2.663,1.145,3.294   c1.074,0.632,2.073,0.032,3.132-0.605c0.875-0.527,1.964-1.182,3.614-1.694c1.665-0.516,2.778-0.537,3.672-0.554   c1.01-0.019,1.964-0.038,2.737-0.95c1.535-1.813,0.545-4.699-3.426-13.037c-1.234-2.593-2.51-5.183-3.804-7.722   c1.269,0.389,2.451,0.988,3.486,1.772c0.821,0.623,1.555,1.361,2.181,2.195c0.219,0.292,0.577,0.44,0.941,0.39   c0.361-0.052,0.666-0.296,0.794-0.638c2.067-5.482,6.909-9.06,12.11-8.922c4.721,0.132,7.912,3.429,8.778,4.437   c0.206,0.24,0.515,0.362,0.831,0.346c0.316-0.023,0.603-0.194,0.772-0.462c0.529-0.835,1.246-1.556,2.071-2.085   c0.575-0.368,1.148-0.611,1.674-0.771c-0.202,0.648-0.448,1.28-0.739,1.891c-0.579,1.218-1.326,2.346-2.222,3.353   c-0.295,0.333-0.336,0.82-0.099,1.196c1.444,2.299,1.266,5.919,0.114,7.161c-0.979,1.055-2.645,1.301-3.687,0.934   c-1.976-0.7-3.271-4.089-3.224-8.433c0.018-1.597-0.776-3.085-2.123-3.98c-1.39-0.922-3.092-1.06-4.672-0.375   c-1.395,0.604-2.406,1.954-2.706,3.611c-0.045,0.25-0.095,0.486-0.147,0.73c-0.31,1.456-0.662,3.105-0.345,8.253   c0.392,6.362,0.557,7.177,1.604,7.928c1.292,0.926,2.653,0.523,4.375,0.015c1.178-0.347,2.644-0.78,4.651-1.032   c0.922-0.116,1.466-0.109,1.986-0.101c0.369,0.003,0.723,0.008,1.154-0.021c6.307-0.449,14.298-8.021,15.554-17.484   c0.351-2.645,0.136-5.428-0.622-8.15c1.994,0.783,4.437,2.24,5.882,4.907c1.635,3.016,1.256,6.233,1.075,7.779   c-0.293,2.499-1.071,4.219-1.696,5.602c-0.728,1.608-1.355,2.997-0.581,4.534c0.805,1.596,2.405,1.845,4.257,2.133   c1.021,0.159,2.177,0.339,3.455,0.759C81.555,48.782,88.542,54.343,87.97,57.242z"/><path d="M39.96,85.826c-0.141,0.397-0.018,0.839,0.307,1.107l2.889,2.376c0.055,0.045,5.568,4.512,13.139,9.562   c0.17,0.113,0.363,0.168,0.554,0.168c0.302,0,0.6-0.137,0.796-0.394c1.594-2.091,3.141-4.013,4.73-5.874l0.158-0.185   c1.635-1.912,3.67-4.291,3.647-7.648c-0.006-0.927-0.021-3.099-1.555-4.355c-2.272-1.86-5.911-0.277-10.124,1.556   c-0.522,0.227-1.056,0.459-1.598,0.689c-3.569,1.519-7.609,2.303-12.007,2.332C40.475,85.164,40.101,85.43,39.96,85.826z    M53.687,84.67c0.547-0.233,1.085-0.467,1.612-0.697c3.461-1.507,6.732-2.929,8.059-1.842c0.808,0.661,0.818,2.175,0.822,2.822   c0.018,2.611-1.674,4.589-3.167,6.334l-0.159,0.186c-1.422,1.666-2.811,3.378-4.227,5.213C49.543,91.91,44.47,87.8,44.422,87.761   l-0.86-0.708C47.211,86.779,50.607,85.98,53.687,84.67z"/></g><text x="0" y="140.95600000000002" fill="#000000" font-size="5px" font-weight="bold" font-family="'Helvetica Neue', Helvetica, Arial-Unicode, Arial, Sans-serif">Created by Amethyst Studio</text><text x="0" y="145.95600000000002" fill="#000000" font-size="5px" font-weight="bold" font-family="'Helvetica Neue', Helvetica, Arial-Unicode, Arial, Sans-serif">from the Noun Project</text></svg>